# xmcd
#
# Track frame offsets:
#	182
#	16232
#	34457
#	50282
#	65282
#	69557
#	71957
#	76757
#	80507
#	84557
#	87932
#	93782
#	97232
#	101882
#	104957
#	107432
#	110507
#	124382
#	138632
#	153482
#	169082
#	173732
#	174407
#	178607
#	185957
#	201932
#	217157
#	232307
#	248957
#	254657
#	262457
#
# Disc length: 3575 seconds
#
# Revision: 1
# Processed by: cddbd v1.5.1PL0 Copyright (c) Steve Scherf et al.
# Submitted via: CDex 1.50Beta5
#
DISCID=dd0df51f
DTITLE=森英治 - らんま1/2 音楽の鉄人編
DYEAR=1995
DGENRE=
TTITLE0=森英治/森英治名曲 EXTENDEDバージョン集 作品#1
TTITLE1=森英治/森英治名曲 EXTENDEDバージョン集 作品#2
TTITLE2=森英治/森英治名曲 EXTENDEDバージョン集 作品#3
TTITLE3=森英治/森英治名曲 EXTENDEDバージョン集 作品#4
TTITLE4=森英治/森英治未発表曲集 作品#1
TTITLE5=森英治/森英治未発表曲集 作品#2
TTITLE6=森英治/森英治未発表曲集 作品#3
TTITLE7=森英治/森英治未発表曲集 作品#4
TTITLE8=森英治/森英治未発表曲集 作品#5
TTITLE9=森英治/森英治未発表曲集 作品#6
TTITLE10=森英治/森英治未発表曲集 作品#7
TTITLE11=森英治/森英治未発表曲集 作品#8
TTITLE12=森英治/森英治未発表曲集 作品#9
TTITLE13=森英治/森英治未発表曲集 作品#10
TTITLE14=森英治/森英治未発表曲集 作品#11
TTITLE15=森英治/森英治未発表曲集 作品#12
TTITLE16=川井憲次/川井憲次名曲 EXTENDEDバージョン集 作品#1
TTITLE17=川井憲次/川井憲次名曲 EXTENDEDバージョン集 作品#2
TTITLE18=川井憲次/川井憲次名曲 EXTENDEDバージョン集 作品#3
TTITLE19=川井憲次/川井憲次名曲 EXTENDEDバージョン集 作品#4
TTITLE20=川井憲次/川井憲次未発表曲集 作品#1
TTITLE21=川井憲次/川井憲次未発表曲集 作品#2
TTITLE22=川井憲次/川井憲次未発表曲集 作品#3
TTITLE23=川井憲次/川井憲次未発表曲集 作品#4
TTITLE24=松浦晃久/松浦晃久名曲 EXTENDEDバージョン集 作品#1
TTITLE25=松浦晃久/松浦晃久名曲 EXTENDEDバージョン集 作品#2
TTITLE26=松浦晃久/松浦晃久名曲 EXTENDEDバージョン集 作品#3
TTITLE27=松浦晃久/松浦晃久名曲 EXTENDEDバージョン集 作品#4
TTITLE28=松浦晃久/松浦晃久未発表曲集 作品#1
TTITLE29=松浦晃久/松浦晃久未発表曲集 作品#2
TTITLE30=松浦晃久/松浦晃久未発表曲集 作品#3
EXTD=
EXTT0=
EXTT1=
EXTT2=
EXTT3=
EXTT4=
EXTT5=
EXTT6=
EXTT7=
EXTT8=
EXTT9=
EXTT10=
EXTT11=
EXTT12=
EXTT13=
EXTT14=
EXTT15=
EXTT16=
EXTT17=
EXTT18=
EXTT19=
EXTT20=
EXTT21=
EXTT22=
EXTT23=
EXTT24=
EXTT25=
EXTT26=
EXTT27=
EXTT28=
EXTT29=
EXTT30=
PLAYORDER=
